<svg xmlns="http://www.w3.org/2000/svg" version="1.1" xmlns:xlink="http://www.w3.org/1999/xlink" xmlns:svgjs="http://svgjs.dev/svgjs" width="412" height="416"><svg width="412" height="416" viewBox="0 0 412 416" fill="none" xmlns="http://www.w3.org/2000/svg">
<path d="M206.177 0.397766L384.145 104.148V311.648L206.177 415.398L28.2087 311.648V104.148L206.177 0.397766Z" fill="white"></path>
<path fill-rule="evenodd" clip-rule="evenodd" d="M316.23 142.453L323.273 252.013H302.051L298.973 190.129H298.163L286.499 235.813H273.215L261.551 190.129H260.741L257.663 252.013H257.629L247.721 391.299L384.39 311.625V104.125L311.422 61.587L316.23 142.453ZM306.605 264.613H298.925C297.069 265.402 296.141 266.906 296.141 269.125C296.141 270.063 296.557 271.279 297.389 272.773L303.149 283.109L303.053 283.301H296.429V287.013H304.909C306.338 286.01 307.053 284.431 307.053 282.277C307.053 281.295 306.53 279.866 305.485 277.989L300.365 268.645L300.461 268.453H306.605V264.613ZM318.147 283.461L318.819 287.013H323.107L319.011 264.613H312.387L308.067 287.013H312.419L313.091 283.461H318.147ZM314.307 276.229L315.555 268.773H315.619L316.867 276.229L317.603 280.037H313.603L314.307 276.229Z" fill="#E84855"></path>
<path fill-rule="evenodd" clip-rule="evenodd" d="M290.264 49.4344L206.149 0.397766L28.1805 104.148V311.648L206.149 415.398L225.559 404.082L236.523 249.938L236.574 249.942L243.731 138.613H263.981L270.947 164.695L279.533 200.173H280.181L288.767 164.695L295.596 139.126L290.264 49.4344ZM134.085 234.031L137.487 252.013H159.195L138.459 138.613H104.925L83.0545 252.013H105.087L108.489 234.031H134.085ZM114.645 197.419L120.963 159.673H121.287L127.605 197.419L131.331 216.697H111.081L114.645 197.419ZM226.986 233.221H198.474C195.558 229.873 193.02 224.473 190.86 217.021C188.808 209.569 187.782 202.441 187.782 195.637C187.782 188.833 188.808 181.705 190.86 174.253C193.02 166.801 195.558 161.401 198.474 158.053H226.986V138.613H188.592C180.492 145.201 174.39 153.517 170.286 163.561C166.182 173.605 164.13 184.081 164.13 194.989C164.13 205.789 165.966 216.319 169.638 226.579C173.31 236.839 178.71 245.317 185.838 252.013H226.986V233.221ZM89.1785 283.301H94.8105V287.013H86.6825C85.2745 285.69 84.2078 284.015 83.4825 281.989C82.7572 279.962 82.3945 277.882 82.3945 275.749C82.3945 273.594 82.7998 271.525 83.6105 269.541C84.4212 267.557 85.6265 265.914 87.2265 264.613H94.8105V268.453H89.1785C88.6025 269.114 88.1012 270.181 87.6745 271.653C87.2692 273.125 87.0665 274.533 87.0665 275.877C87.0665 277.221 87.2692 278.629 87.6745 280.101C88.1012 281.573 88.6025 282.639 89.1785 283.301ZM101.542 287.013H97.158V264.613H101.542V273.637H106.662V264.613H111.046V287.013H106.662V277.733H101.542V287.013ZM123.663 287.013L122.991 283.461H117.935L117.263 287.013H112.911L117.231 264.613H123.855L127.951 287.013H123.663ZM120.399 268.773L119.151 276.229L118.447 280.037H122.447L121.711 276.229L120.463 268.773H120.399ZM134.134 268.453V276.453H136.982C138.156 275.493 138.742 274.085 138.742 272.229C138.742 271.439 138.582 270.693 138.262 269.989C137.964 269.285 137.601 268.773 137.174 268.453H134.134ZM129.814 287.013V264.613H138.486C139.937 265.253 141.078 266.234 141.91 267.557C142.764 268.879 143.19 270.426 143.19 272.197C143.19 273.946 142.753 275.567 141.878 277.061C141.004 278.554 139.713 279.61 138.006 280.229H134.134V287.013H129.814ZM148.68 268.453H143.848V264.613H157.864V268.453H153.032V287.013H148.68V268.453ZM159.721 287.013V264.613H171.209V268.453H164.105V273.797H170.441V277.509H164.105V283.301H171.337V287.013H159.721ZM173.814 264.613H182.326C183.67 265.061 184.812 265.893 185.75 267.109C186.71 268.303 187.19 269.775 187.19 271.525C187.19 274.383 186.06 276.485 183.798 277.829L187.03 287.013H182.55L179.83 278.853H178.134V287.013H173.814V264.613ZM178.134 268.453V275.269H180.886C181.249 275.183 181.644 274.821 182.07 274.181C182.518 273.519 182.742 272.751 182.742 271.877C182.742 271.002 182.55 270.234 182.166 269.573C181.804 268.911 181.441 268.538 181.078 268.453H178.134Z" fill="#30BCED"></path>
</svg><style>@media (prefers-color-scheme: light) { :root { filter: none; } }
@media (prefers-color-scheme: dark) { :root { filter: none; } }
</style></svg>