<svg width="411" height="415" viewBox="0 0 411 415" fill="none" xmlns="http://www.w3.org/2000/svg">
<path d="M205.5 0L383.468 103.75V311.25L205.5 415L27.5318 311.25V103.75L205.5 0Z" fill="white"/>
<path fill-rule="evenodd" clip-rule="evenodd" d="M315.553 142.056L322.596 251.615H301.374L298.296 189.731H297.486L285.822 235.415H272.538L260.874 189.731H260.064L256.986 251.615H256.952L247.044 390.901L383.714 311.227V103.727L310.746 61.1892L315.553 142.056ZM305.928 264.215H298.248C296.392 265.004 295.464 266.508 295.464 268.727C295.464 269.666 295.88 270.882 296.712 272.375L302.472 282.711L302.376 282.903H295.752V286.615H304.232C305.661 285.612 306.376 284.034 306.376 281.879C306.376 280.898 305.853 279.468 304.808 277.591L299.688 268.247L299.784 268.055H305.928V264.215ZM317.47 283.063L318.142 286.615H322.43L318.334 264.215H311.71L307.39 286.615H311.742L312.414 283.063H317.47ZM313.63 275.831L314.878 268.375H314.942L316.19 275.831L316.926 279.639H312.926L313.63 275.831Z" fill="black"/>
<path fill-rule="evenodd" clip-rule="evenodd" d="M289.587 49.0367L205.472 0L27.5035 103.75V311.25L205.472 415L224.882 403.685L235.846 249.54L235.897 249.544L243.054 138.215H263.304L270.27 164.297L278.856 199.775H279.504L288.09 164.297L294.919 138.728L289.587 49.0367ZM133.408 233.633L136.81 251.615H158.518L137.782 138.215H104.248L82.3776 251.615H104.41L107.812 233.633H133.408ZM113.968 197.021L120.286 159.275H120.61L126.928 197.021L130.654 216.299H110.404L113.968 197.021ZM226.31 232.823H197.798C194.882 229.475 192.344 224.075 190.184 216.623C188.132 209.171 187.106 202.043 187.106 195.239C187.106 188.435 188.132 181.307 190.184 173.855C192.344 166.403 194.882 161.003 197.798 157.655H226.31V138.215H187.916C179.816 144.803 173.714 153.119 169.61 163.163C165.506 173.207 163.454 183.683 163.454 194.591C163.454 205.391 165.29 215.921 168.962 226.181C172.634 236.441 178.034 244.919 185.162 251.615H226.31V232.823ZM88.5016 282.903H94.1336V286.615H86.0056C84.5976 285.292 83.5309 283.618 82.8056 281.591C82.0803 279.564 81.7176 277.484 81.7176 275.351C81.7176 273.196 82.1229 271.127 82.9336 269.143C83.7443 267.159 84.9496 265.516 86.5496 264.215H94.1336V268.055H88.5016C87.9256 268.716 87.4243 269.783 86.9976 271.255C86.5923 272.727 86.3896 274.135 86.3896 275.479C86.3896 276.823 86.5923 278.231 86.9976 279.703C87.4243 281.175 87.9256 282.242 88.5016 282.903ZM100.865 286.615H96.4811V264.215H100.865V273.239H105.985V264.215H110.369V286.615H105.985V277.335H100.865V286.615ZM122.986 286.615L122.314 283.063H117.258L116.586 286.615H112.234L116.554 264.215H123.178L127.274 286.615H122.986ZM119.722 268.375L118.474 275.831L117.77 279.639H121.77L121.034 275.831L119.786 268.375H119.722ZM133.457 268.055V276.055H136.305C137.479 275.095 138.065 273.687 138.065 271.831C138.065 271.042 137.905 270.295 137.585 269.591C137.287 268.887 136.924 268.375 136.497 268.055H133.457ZM129.137 286.615V264.215H137.809C139.26 264.855 140.401 265.836 141.233 267.159C142.087 268.482 142.513 270.028 142.513 271.799C142.513 273.548 142.076 275.17 141.201 276.663C140.327 278.156 139.036 279.212 137.329 279.831H133.457V286.615H129.137ZM148.003 268.055H143.171V264.215H157.187V268.055H152.355V286.615H148.003V268.055ZM159.044 286.615V264.215H170.532V268.055H163.428V273.399H169.764V277.111H163.428V282.903H170.66V286.615H159.044ZM173.137 264.215H181.649C182.993 264.663 184.135 265.495 185.073 266.711C186.033 267.906 186.513 269.378 186.513 271.127C186.513 273.986 185.383 276.087 183.121 277.431L186.353 286.615H181.873L179.153 278.455H177.457V286.615H173.137V264.215ZM177.457 268.055V274.871H180.209C180.572 274.786 180.967 274.423 181.393 273.783C181.841 273.122 182.065 272.354 182.065 271.479C182.065 270.604 181.873 269.836 181.489 269.175C181.127 268.514 180.764 268.14 180.401 268.055H177.457Z" fill="#14213D"/>
</svg>
